<?xml version="1.0" encoding="utf-8" standalone="no"?>
<!DOCTYPE svg PUBLIC "-//W3C//DTD SVG 1.1//EN"
  "http://www.w3.org/Graphics/SVG/1.1/DTD/svg11.dtd">
<svg xmlns:xlink="http://www.w3.org/1999/xlink" width="648pt" height="432pt" viewBox="0 0 648 432" xmlns="http://www.w3.org/2000/svg" version="1.1">
 <metadata>
  <rdf:RDF xmlns:dc="http://purl.org/dc/elements/1.1/" xmlns:cc="http://creativecommons.org/ns#" xmlns:rdf="http://www.w3.org/1999/02/22-rdf-syntax-ns#">
   <cc:Work>
    <dc:type rdf:resource="http://purl.org/dc/dcmitype/StillImage"/>
    <dc:date>2026-07-15T00:37:07.082676</dc:date>
    <dc:format>image/svg+xml</dc:format>
    <dc:creator>
     <cc:Agent>
      <dc:title>Matplotlib v3.11.0, https://matplotlib.org/</dc:title>
     </cc:Agent>
    </dc:creator>
   </cc:Work>
  </rdf:RDF>
 </metadata>
 <defs>
  <style type="text/css">*{stroke-linejoin: round; stroke-linecap: butt}</style>
 </defs>
 <g id="figure_1">
  <g id="patch_1">
   <path d="M 0 432 
L 648 432 
L 648 0 
L 0 0 
z
" style="fill: #ffffff"/>
  </g>
  <g id="axes_1">
   <g id="patch_2">
    <path d="M 102.04 388.115312 
L 637.2 388.115312 
L 637.2 26.16 
L 102.04 26.16 
z
" style="fill: #ffffff"/>
   </g>
   <g id="patch_3">
    <path d="M 211.102344 388.115312 
L 637.2 388.115312 
L 637.2 26.16 
L 211.102344 26.16 
z
" clip-path="url(#pdaaef7506a)" style="fill: #2ec4b6; opacity: 0.08; stroke: #2ec4b6; stroke-linejoin: miter"/>
   </g>
   <g id="patch_4">
    <path d="M -319490.267139 61.109424 
L 595.532116 61.109424 
L 595.532116 79.606333 
L -319490.267139 79.606333 
z
" clip-path="url(#pdaaef7506a)" style="fill: #1f4e79"/>
   </g>
   <g id="patch_5">
    <path d="M -319490.267139 109.785501 
L 496.987755 109.785501 
L 496.987755 128.282411 
L -319490.267139 128.282411 
z
" clip-path="url(#pdaaef7506a)" style="fill: #1f4e79"/>
   </g>
   <g id="patch_6">
    <path d="M -319490.267139 158.461579 
L 214.361032 158.461579 
L 214.361032 176.958488 
L -319490.267139 176.958488 
z
" clip-path="url(#pdaaef7506a)" style="fill: #1f4e79"/>
   </g>
   <g id="patch_7">
    <path d="M -319490.267139 207.137656 
L 143.707884 207.137656 
L 143.707884 225.634566 
L -319490.267139 225.634566 
z
" clip-path="url(#pdaaef7506a)" style="fill: #1f4e79"/>
   </g>
   <g id="patch_8">
    <path d="M -319490.267139 255.813734 
L 200.327482 255.813734 
L 200.327482 274.310643 
L -319490.267139 274.310643 
z
" clip-path="url(#pdaaef7506a)" style="fill: #1f4e79"/>
   </g>
   <g id="patch_9">
    <path d="M -319490.267139 304.489811 
L 173.597195 304.489811 
L 173.597195 322.986721 
L -319490.267139 322.986721 
z
" clip-path="url(#pdaaef7506a)" style="fill: #1f4e79"/>
   </g>
   <g id="patch_10">
    <path d="M -319490.267139 353.165889 
L 247.244786 353.165889 
L 247.244786 371.662798 
L -319490.267139 371.662798 
z
" clip-path="url(#pdaaef7506a)" style="fill: #1f4e79"/>
   </g>
   <g id="patch_11">
    <path d="M -319490.267139 42.612514 
L 333.433158 42.612514 
L 333.433158 61.109424 
L -319490.267139 61.109424 
z
" clip-path="url(#pdaaef7506a)" style="fill: #2ec4b6"/>
   </g>
   <g id="patch_12">
    <path d="M -319490.267139 91.288592 
L 423.90676 91.288592 
L 423.90676 109.785501 
L -319490.267139 109.785501 
z
" clip-path="url(#pdaaef7506a)" style="fill: #2ec4b6"/>
   </g>
   <g id="patch_13">
    <path d="M -319490.267139 139.964669 
L 216.404604 139.964669 
L 216.404604 158.461579 
L -319490.267139 158.461579 
z
" clip-path="url(#pdaaef7506a)" style="fill: #2ec4b6"/>
   </g>
   <g id="patch_14">
    <path d="M -319490.267139 188.640747 
L 291.376887 188.640747 
L 291.376887 207.137656 
L -319490.267139 207.137656 
z
" clip-path="url(#pdaaef7506a)" style="fill: #2ec4b6"/>
   </g>
   <g id="patch_15">
    <path d="M -319490.267139 237.316824 
L 211.259094 237.316824 
L 211.259094 255.813734 
L -319490.267139 255.813734 
z
" clip-path="url(#pdaaef7506a)" style="fill: #2ec4b6"/>
   </g>
   <g id="patch_16">
    <path d="M -319490.267139 285.992902 
L 196.156916 285.992902 
L 196.156916 304.489811 
L -319490.267139 304.489811 
z
" clip-path="url(#pdaaef7506a)" style="fill: #2ec4b6"/>
   </g>
   <g id="patch_17">
    <path d="M -319490.267139 334.668979 
L 187.859448 334.668979 
L 187.859448 353.165889 
L -319490.267139 353.165889 
z
" clip-path="url(#pdaaef7506a)" style="fill: #2ec4b6"/>
   </g>
   <g id="matplotlib.axis_1">
    <g id="xtick_1">
     <g id="line2d_1">
      <defs>
       <path id="m44f6f1608b" d="M 0 0 
L 0 3.5 
" style="stroke: #000000; stroke-width: 0.8"/>
      </defs>
      <g>
       <use xlink:href="#m44f6f1608b" x="211.102344" y="388.115312" style="stroke: #000000; stroke-width: 0.8"/>
      </g>
     </g>
     <g id="text_1">
      <!-- $\mathdefault{10^{0}}$ -->
      <g transform="translate(202.302344 404.515312) scale(0.1 -0.1)">
       <defs>
        <path id="DejaVuSans-14" d="M 794 531 
L 1825 531 
L 1825 4091 
L 703 3866 
L 703 4441 
L 1819 4666 
L 2450 4666 
L 2450 531 
L 3481 531 
L 3481 0 
L 794 0 
L 794 531 
z
" transform="scale(0.015625)"/>
        <path id="DejaVuSans-13" d="M 2034 4250 
Q 1547 4250 1301 3770 
Q 1056 3291 1056 2328 
Q 1056 1369 1301 889 
Q 1547 409 2034 409 
Q 2525 409 2770 889 
Q 3016 1369 3016 2328 
Q 3016 3291 2770 3770 
Q 2525 4250 2034 4250 
z
M 2034 4750 
Q 2819 4750 3233 4129 
Q 3647 3509 3647 2328 
Q 3647 1150 3233 529 
Q 2819 -91 2034 -91 
Q 1250 -91 836 529 
Q 422 1150 422 2328 
Q 422 3509 836 4129 
Q 1250 4750 2034 4750 
z
" transform="scale(0.015625)"/>
       </defs>
       <use xlink:href="#DejaVuSans-14" transform="translate(0 0.746875)"/>
       <use xlink:href="#DejaVuSans-13" transform="translate(63.623047 0.746875)"/>
       <use xlink:href="#DejaVuSans-13" transform="translate(128.203125 42.046875) scale(0.7)"/>
      </g>
     </g>
    </g>
    <g id="xtick_2">
     <g id="line2d_2">
      <g>
       <use xlink:href="#m44f6f1608b" x="530.803713" y="388.115312" style="stroke: #000000; stroke-width: 0.8"/>
      </g>
     </g>
     <g id="text_2">
      <!-- $\mathdefault{10^{1}}$ -->
      <g transform="translate(522.003713 404.415312) scale(0.1 -0.1)">
       <use xlink:href="#DejaVuSans-14" transform="translate(0 0.665625)"/>
       <use xlink:href="#DejaVuSans-13" transform="translate(63.623047 0.665625)"/>
       <use xlink:href="#DejaVuSans-14" transform="translate(128.203125 41.965625) scale(0.7)"/>
      </g>
     </g>
    </g>
    <g id="xtick_3">
     <g id="line2d_3">
      <defs>
       <path id="m883e9b7176" d="M 0 0 
L 0 2 
" style="stroke: #000000; stroke-width: 0.6"/>
      </defs>
      <g>
       <use xlink:href="#m883e9b7176" x="114.862642" y="388.115312" style="stroke: #000000; stroke-width: 0.6"/>
      </g>
     </g>
    </g>
    <g id="xtick_4">
     <g id="line2d_4">
      <g>
       <use xlink:href="#m883e9b7176" x="140.176995" y="388.115312" style="stroke: #000000; stroke-width: 0.6"/>
      </g>
     </g>
    </g>
    <g id="xtick_5">
     <g id="line2d_5">
      <g>
       <use xlink:href="#m883e9b7176" x="161.579975" y="388.115312" style="stroke: #000000; stroke-width: 0.6"/>
      </g>
     </g>
    </g>
    <g id="xtick_6">
     <g id="line2d_6">
      <g>
       <use xlink:href="#m883e9b7176" x="180.12008" y="388.115312" style="stroke: #000000; stroke-width: 0.6"/>
      </g>
     </g>
    </g>
    <g id="xtick_7">
     <g id="line2d_7">
      <g>
       <use xlink:href="#m883e9b7176" x="196.473611" y="388.115312" style="stroke: #000000; stroke-width: 0.6"/>
      </g>
     </g>
    </g>
    <g id="xtick_8">
     <g id="line2d_8">
      <g>
       <use xlink:href="#m883e9b7176" x="307.342046" y="388.115312" style="stroke: #000000; stroke-width: 0.6"/>
      </g>
     </g>
    </g>
    <g id="xtick_9">
     <g id="line2d_9">
      <g>
       <use xlink:href="#m883e9b7176" x="363.638662" y="388.115312" style="stroke: #000000; stroke-width: 0.6"/>
      </g>
     </g>
    </g>
    <g id="xtick_10">
     <g id="line2d_10">
      <g>
       <use xlink:href="#m883e9b7176" x="403.581747" y="388.115312" style="stroke: #000000; stroke-width: 0.6"/>
      </g>
     </g>
    </g>
    <g id="xtick_11">
     <g id="line2d_11">
      <g>
       <use xlink:href="#m883e9b7176" x="434.564011" y="388.115312" style="stroke: #000000; stroke-width: 0.6"/>
      </g>
     </g>
    </g>
    <g id="xtick_12">
     <g id="line2d_12">
      <g>
       <use xlink:href="#m883e9b7176" x="459.878364" y="388.115312" style="stroke: #000000; stroke-width: 0.6"/>
      </g>
     </g>
    </g>
    <g id="xtick_13">
     <g id="line2d_13">
      <g>
       <use xlink:href="#m883e9b7176" x="481.281344" y="388.115312" style="stroke: #000000; stroke-width: 0.6"/>
      </g>
     </g>
    </g>
    <g id="xtick_14">
     <g id="line2d_14">
      <g>
       <use xlink:href="#m883e9b7176" x="499.821449" y="388.115312" style="stroke: #000000; stroke-width: 0.6"/>
      </g>
     </g>
    </g>
    <g id="xtick_15">
     <g id="line2d_15">
      <g>
       <use xlink:href="#m883e9b7176" x="516.174981" y="388.115312" style="stroke: #000000; stroke-width: 0.6"/>
      </g>
     </g>
    </g>
    <g id="xtick_16">
     <g id="line2d_16">
      <g>
       <use xlink:href="#m883e9b7176" x="627.043415" y="388.115312" style="stroke: #000000; stroke-width: 0.6"/>
      </g>
     </g>
    </g>
    <g id="text_3">
     <!-- speedup = legacy / meshio++  (log; shaded = meshio++ faster) -->
     <g transform="translate(206.714531 418.516094) scale(0.1 -0.1)">
      <defs>
       <path id="DejaVuSans-56" d="M 2834 3397 
L 2834 2853 
Q 2591 2978 2328 3040 
Q 2066 3103 1784 3103 
Q 1356 3103 1142 2972 
Q 928 2841 928 2578 
Q 928 2378 1081 2264 
Q 1234 2150 1697 2047 
L 1894 2003 
Q 2506 1872 2764 1633 
Q 3022 1394 3022 966 
Q 3022 478 2636 193 
Q 2250 -91 1575 -91 
Q 1294 -91 989 -36 
Q 684 19 347 128 
L 347 722 
Q 666 556 975 473 
Q 1284 391 1588 391 
Q 1994 391 2212 530 
Q 2431 669 2431 922 
Q 2431 1156 2273 1281 
Q 2116 1406 1581 1522 
L 1381 1569 
Q 847 1681 609 1914 
Q 372 2147 372 2553 
Q 372 3047 722 3315 
Q 1072 3584 1716 3584 
Q 2034 3584 2315 3537 
Q 2597 3491 2834 3397 
z
" transform="scale(0.015625)"/>
       <path id="DejaVuSans-53" d="M 1159 525 
L 1159 -1331 
L 581 -1331 
L 581 3500 
L 1159 3500 
L 1159 2969 
Q 1341 3281 1617 3432 
Q 1894 3584 2278 3584 
Q 2916 3584 3314 3078 
Q 3713 2572 3713 1747 
Q 3713 922 3314 415 
Q 2916 -91 2278 -91 
Q 1894 -91 1617 61 
Q 1341 213 1159 525 
z
M 3116 1747 
Q 3116 2381 2855 2742 
Q 2594 3103 2138 3103 
Q 1681 3103 1420 2742 
Q 1159 2381 1159 1747 
Q 1159 1113 1420 752 
Q 1681 391 2138 391 
Q 2594 391 2855 752 
Q 3116 1113 3116 1747 
z
" transform="scale(0.015625)"/>
       <path id="DejaVuSans-48" d="M 3597 1894 
L 3597 1613 
L 953 1613 
Q 991 1019 1311 708 
Q 1631 397 2203 397 
Q 2534 397 2845 478 
Q 3156 559 3463 722 
L 3463 178 
Q 3153 47 2828 -22 
Q 2503 -91 2169 -91 
Q 1331 -91 842 396 
Q 353 884 353 1716 
Q 353 2575 817 3079 
Q 1281 3584 2069 3584 
Q 2775 3584 3186 3129 
Q 3597 2675 3597 1894 
z
M 3022 2063 
Q 3016 2534 2758 2815 
Q 2500 3097 2075 3097 
Q 1594 3097 1305 2825 
Q 1016 2553 972 2059 
L 3022 2063 
z
" transform="scale(0.015625)"/>
       <path id="DejaVuSans-47" d="M 2906 2969 
L 2906 4863 
L 3481 4863 
L 3481 0 
L 2906 0 
L 2906 525 
Q 2725 213 2448 61 
Q 2172 -91 1784 -91 
Q 1150 -91 751 415 
Q 353 922 353 1747 
Q 353 2572 751 3078 
Q 1150 3584 1784 3584 
Q 2172 3584 2448 3432 
Q 2725 3281 2906 2969 
z
M 947 1747 
Q 947 1113 1208 752 
Q 1469 391 1925 391 
Q 2381 391 2643 752 
Q 2906 1113 2906 1747 
Q 2906 2381 2643 2742 
Q 2381 3103 1925 3103 
Q 1469 3103 1208 2742 
Q 947 2381 947 1747 
z
" transform="scale(0.015625)"/>
       <path id="DejaVuSans-58" d="M 544 1381 
L 544 3500 
L 1119 3500 
L 1119 1403 
Q 1119 906 1312 657 
Q 1506 409 1894 409 
Q 2359 409 2629 706 
Q 2900 1003 2900 1516 
L 2900 3500 
L 3475 3500 
L 3475 0 
L 2900 0 
L 2900 538 
Q 2691 219 2414 64 
Q 2138 -91 1772 -91 
Q 1169 -91 856 284 
Q 544 659 544 1381 
z
M 1991 3584 
L 1991 3584 
z
" transform="scale(0.015625)"/>
       <path id="DejaVuSans-3" transform="scale(0.015625)"/>
       <path id="DejaVuSans-20" d="M 678 2906 
L 4684 2906 
L 4684 2381 
L 678 2381 
L 678 2906 
z
M 678 1631 
L 4684 1631 
L 4684 1100 
L 678 1100 
L 678 1631 
z
" transform="scale(0.015625)"/>
       <path id="DejaVuSans-4f" d="M 603 4863 
L 1178 4863 
L 1178 0 
L 603 0 
L 603 4863 
z
" transform="scale(0.015625)"/>
       <path id="DejaVuSans-4a" d="M 2906 1791 
Q 2906 2416 2648 2759 
Q 2391 3103 1925 3103 
Q 1463 3103 1205 2759 
Q 947 2416 947 1791 
Q 947 1169 1205 825 
Q 1463 481 1925 481 
Q 2391 481 2648 825 
Q 2906 1169 2906 1791 
z
M 3481 434 
Q 3481 -459 3084 -895 
Q 2688 -1331 1869 -1331 
Q 1566 -1331 1297 -1286 
Q 1028 -1241 775 -1147 
L 775 -588 
Q 1028 -725 1275 -790 
Q 1522 -856 1778 -856 
Q 2344 -856 2625 -561 
Q 2906 -266 2906 331 
L 2906 616 
Q 2728 306 2450 153 
Q 2172 0 1784 0 
Q 1141 0 747 490 
Q 353 981 353 1791 
Q 353 2603 747 3093 
Q 1141 3584 1784 3584 
Q 2172 3584 2450 3431 
Q 2728 3278 2906 2969 
L 2906 3500 
L 3481 3500 
L 3481 434 
z
" transform="scale(0.015625)"/>
       <path id="DejaVuSans-44" d="M 2194 1759 
Q 1497 1759 1228 1600 
Q 959 1441 959 1056 
Q 959 750 1161 570 
Q 1363 391 1709 391 
Q 2188 391 2477 730 
Q 2766 1069 2766 1631 
L 2766 1759 
L 2194 1759 
z
M 3341 1997 
L 3341 0 
L 2766 0 
L 2766 531 
Q 2569 213 2275 61 
Q 1981 -91 1556 -91 
Q 1019 -91 701 211 
Q 384 513 384 1019 
Q 384 1609 779 1909 
Q 1175 2209 1959 2209 
L 2766 2209 
L 2766 2266 
Q 2766 2663 2505 2880 
Q 2244 3097 1772 3097 
Q 1472 3097 1187 3025 
Q 903 2953 641 2809 
L 641 3341 
Q 956 3463 1253 3523 
Q 1550 3584 1831 3584 
Q 2591 3584 2966 3190 
Q 3341 2797 3341 1997 
z
" transform="scale(0.015625)"/>
       <path id="DejaVuSans-46" d="M 3122 3366 
L 3122 2828 
Q 2878 2963 2633 3030 
Q 2388 3097 2138 3097 
Q 1578 3097 1268 2742 
Q 959 2388 959 1747 
Q 959 1106 1268 751 
Q 1578 397 2138 397 
Q 2388 397 2633 464 
Q 2878 531 3122 666 
L 3122 134 
Q 2881 22 2623 -34 
Q 2366 -91 2075 -91 
Q 1284 -91 818 406 
Q 353 903 353 1747 
Q 353 2603 823 3093 
Q 1294 3584 2113 3584 
Q 2378 3584 2631 3529 
Q 2884 3475 3122 3366 
z
" transform="scale(0.015625)"/>
       <path id="DejaVuSans-5c" d="M 2059 -325 
Q 1816 -950 1584 -1140 
Q 1353 -1331 966 -1331 
L 506 -1331 
L 506 -850 
L 844 -850 
Q 1081 -850 1212 -737 
Q 1344 -625 1503 -206 
L 1606 56 
L 191 3500 
L 800 3500 
L 1894 763 
L 2988 3500 
L 3597 3500 
L 2059 -325 
z
" transform="scale(0.015625)"/>
       <path id="DejaVuSans-12" d="M 1625 4666 
L 2156 4666 
L 531 -594 
L 0 -594 
L 1625 4666 
z
" transform="scale(0.015625)"/>
       <path id="DejaVuSans-50" d="M 3328 2828 
Q 3544 3216 3844 3400 
Q 4144 3584 4550 3584 
Q 5097 3584 5394 3201 
Q 5691 2819 5691 2113 
L 5691 0 
L 5113 0 
L 5113 2094 
Q 5113 2597 4934 2840 
Q 4756 3084 4391 3084 
Q 3944 3084 3684 2787 
Q 3425 2491 3425 1978 
L 3425 0 
L 2847 0 
L 2847 2094 
Q 2847 2600 2669 2842 
Q 2491 3084 2119 3084 
Q 1678 3084 1418 2786 
Q 1159 2488 1159 1978 
L 1159 0 
L 581 0 
L 581 3500 
L 1159 3500 
L 1159 2956 
Q 1356 3278 1631 3431 
Q 1906 3584 2284 3584 
Q 2666 3584 2933 3390 
Q 3200 3197 3328 2828 
z
" transform="scale(0.015625)"/>
       <path id="DejaVuSans-4b" d="M 3513 2113 
L 3513 0 
L 2938 0 
L 2938 2094 
Q 2938 2591 2744 2837 
Q 2550 3084 2163 3084 
Q 1697 3084 1428 2787 
Q 1159 2491 1159 1978 
L 1159 0 
L 581 0 
L 581 4863 
L 1159 4863 
L 1159 2956 
Q 1366 3272 1645 3428 
Q 1925 3584 2291 3584 
Q 2894 3584 3203 3211 
Q 3513 2838 3513 2113 
z
" transform="scale(0.015625)"/>
       <path id="DejaVuSans-4c" d="M 603 3500 
L 1178 3500 
L 1178 0 
L 603 0 
L 603 3500 
z
M 603 4863 
L 1178 4863 
L 1178 4134 
L 603 4134 
L 603 4863 
z
" transform="scale(0.015625)"/>
       <path id="DejaVuSans-52" d="M 1959 3097 
Q 1497 3097 1228 2736 
Q 959 2375 959 1747 
Q 959 1119 1226 758 
Q 1494 397 1959 397 
Q 2419 397 2687 759 
Q 2956 1122 2956 1747 
Q 2956 2369 2687 2733 
Q 2419 3097 1959 3097 
z
M 1959 3584 
Q 2709 3584 3137 3096 
Q 3566 2609 3566 1747 
Q 3566 888 3137 398 
Q 2709 -91 1959 -91 
Q 1206 -91 779 398 
Q 353 888 353 1747 
Q 353 2609 779 3096 
Q 1206 3584 1959 3584 
z
" transform="scale(0.015625)"/>
       <path id="DejaVuSans-e" d="M 2944 4013 
L 2944 2272 
L 4684 2272 
L 4684 1741 
L 2944 1741 
L 2944 0 
L 2419 0 
L 2419 1741 
L 678 1741 
L 678 2272 
L 2419 2272 
L 2419 4013 
L 2944 4013 
z
" transform="scale(0.015625)"/>
       <path id="DejaVuSans-b" d="M 1984 4856 
Q 1566 4138 1362 3434 
Q 1159 2731 1159 2009 
Q 1159 1288 1364 580 
Q 1569 -128 1984 -844 
L 1484 -844 
Q 1016 -109 783 600 
Q 550 1309 550 2009 
Q 550 2706 781 3412 
Q 1013 4119 1484 4856 
L 1984 4856 
z
" transform="scale(0.015625)"/>
       <path id="DejaVuSans-1e" d="M 750 3309 
L 1409 3309 
L 1409 2516 
L 750 2516 
L 750 3309 
z
M 750 794 
L 1409 794 
L 1409 256 
L 897 -744 
L 494 -744 
L 750 256 
L 750 794 
z
" transform="scale(0.015625)"/>
       <path id="DejaVuSans-49" d="M 2375 4863 
L 2375 4384 
L 1825 4384 
Q 1516 4384 1395 4259 
Q 1275 4134 1275 3809 
L 1275 3500 
L 2222 3500 
L 2222 3053 
L 1275 3053 
L 1275 0 
L 697 0 
L 697 3053 
L 147 3053 
L 147 3500 
L 697 3500 
L 697 3744 
Q 697 4328 969 4595 
Q 1241 4863 1831 4863 
L 2375 4863 
z
" transform="scale(0.015625)"/>
       <path id="DejaVuSans-57" d="M 1172 4494 
L 1172 3500 
L 2356 3500 
L 2356 3053 
L 1172 3053 
L 1172 1153 
Q 1172 725 1289 603 
Q 1406 481 1766 481 
L 2356 481 
L 2356 0 
L 1766 0 
Q 1100 0 847 248 
Q 594 497 594 1153 
L 594 3053 
L 172 3053 
L 172 3500 
L 594 3500 
L 594 4494 
L 1172 4494 
z
" transform="scale(0.015625)"/>
       <path id="DejaVuSans-55" d="M 2631 2963 
Q 2534 3019 2420 3045 
Q 2306 3072 2169 3072 
Q 1681 3072 1420 2755 
Q 1159 2438 1159 1844 
L 1159 0 
L 581 0 
L 581 3500 
L 1159 3500 
L 1159 2956 
Q 1341 3275 1631 3429 
Q 1922 3584 2338 3584 
Q 2397 3584 2469 3576 
Q 2541 3569 2628 3553 
L 2631 2963 
z
" transform="scale(0.015625)"/>
       <path id="DejaVuSans-c" d="M 513 4856 
L 1013 4856 
Q 1481 4119 1714 3412 
Q 1947 2706 1947 2009 
Q 1947 1309 1714 600 
Q 1481 -109 1013 -844 
L 513 -844 
Q 928 -128 1133 580 
Q 1338 1288 1338 2009 
Q 1338 2731 1133 3434 
Q 928 4138 513 4856 
z
" transform="scale(0.015625)"/>
      </defs>
      <use xlink:href="#DejaVuSans-56"/>
      <use xlink:href="#DejaVuSans-53" transform="translate(52.09375 0)"/>
      <use xlink:href="#DejaVuSans-48" transform="translate(115.578125 0)"/>
      <use xlink:href="#DejaVuSans-48" transform="translate(177.109375 0)"/>
      <use xlink:href="#DejaVuSans-47" transform="translate(238.640625 0)"/>
      <use xlink:href="#DejaVuSans-58" transform="translate(302.125 0)"/>
      <use xlink:href="#DejaVuSans-53" transform="translate(365.5 0)"/>
      <use xlink:href="#DejaVuSans-3" transform="translate(428.984375 0)"/>
      <use xlink:href="#DejaVuSans-20" transform="translate(460.765625 0)"/>
      <use xlink:href="#DejaVuSans-3" transform="translate(544.5625 0)"/>
      <use xlink:href="#DejaVuSans-4f" transform="translate(576.34375 0)"/>
      <use xlink:href="#DejaVuSans-48" transform="translate(604.125 0)"/>
      <use xlink:href="#DejaVuSans-4a" transform="translate(665.65625 0)"/>
      <use xlink:href="#DejaVuSans-44" transform="translate(729.140625 0)"/>
      <use xlink:href="#DejaVuSans-46" transform="translate(790.421875 0)"/>
      <use xlink:href="#DejaVuSans-5c" transform="translate(845.40625 0)"/>
      <use xlink:href="#DejaVuSans-3" transform="translate(904.59375 0)"/>
      <use xlink:href="#DejaVuSans-12" transform="translate(936.375 0)"/>
      <use xlink:href="#DejaVuSans-3" transform="translate(970.0625 0)"/>
      <use xlink:href="#DejaVuSans-50" transform="translate(1001.84375 0)"/>
      <use xlink:href="#DejaVuSans-48" transform="translate(1099.25 0)"/>
      <use xlink:href="#DejaVuSans-56" transform="translate(1160.78125 0)"/>
      <use xlink:href="#DejaVuSans-4b" transform="translate(1212.875 0)"/>
      <use xlink:href="#DejaVuSans-4c" transform="translate(1276.25 0)"/>
      <use xlink:href="#DejaVuSans-52" transform="translate(1304.03125 0)"/>
      <use xlink:href="#DejaVuSans-e" transform="translate(1365.21875 0)"/>
      <use xlink:href="#DejaVuSans-e" transform="translate(1449.015625 0)"/>
      <use xlink:href="#DejaVuSans-3" transform="translate(1532.8125 0)"/>
      <use xlink:href="#DejaVuSans-3" transform="translate(1564.59375 0)"/>
      <use xlink:href="#DejaVuSans-b" transform="translate(1596.375 0)"/>
      <use xlink:href="#DejaVuSans-4f" transform="translate(1635.390625 0)"/>
      <use xlink:href="#DejaVuSans-52" transform="translate(1663.171875 0)"/>
      <use xlink:href="#DejaVuSans-4a" transform="translate(1724.359375 0)"/>
      <use xlink:href="#DejaVuSans-1e" transform="translate(1787.84375 0)"/>
      <use xlink:href="#DejaVuSans-3" transform="translate(1821.53125 0)"/>
      <use xlink:href="#DejaVuSans-56" transform="translate(1853.3125 0)"/>
      <use xlink:href="#DejaVuSans-4b" transform="translate(1905.40625 0)"/>
      <use xlink:href="#DejaVuSans-44" transform="translate(1968.78125 0)"/>
      <use xlink:href="#DejaVuSans-47" transform="translate(2030.0625 0)"/>
      <use xlink:href="#DejaVuSans-48" transform="translate(2093.546875 0)"/>
      <use xlink:href="#DejaVuSans-47" transform="translate(2155.078125 0)"/>
      <use xlink:href="#DejaVuSans-3" transform="translate(2218.5625 0)"/>
      <use xlink:href="#DejaVuSans-20" transform="translate(2250.34375 0)"/>
      <use xlink:href="#DejaVuSans-3" transform="translate(2334.140625 0)"/>
      <use xlink:href="#DejaVuSans-50" transform="translate(2365.921875 0)"/>
      <use xlink:href="#DejaVuSans-48" transform="translate(2463.328125 0)"/>
      <use xlink:href="#DejaVuSans-56" transform="translate(2524.859375 0)"/>
      <use xlink:href="#DejaVuSans-4b" transform="translate(2576.953125 0)"/>
      <use xlink:href="#DejaVuSans-4c" transform="translate(2640.328125 0)"/>
      <use xlink:href="#DejaVuSans-52" transform="translate(2668.109375 0)"/>
      <use xlink:href="#DejaVuSans-e" transform="translate(2729.296875 0)"/>
      <use xlink:href="#DejaVuSans-e" transform="translate(2813.09375 0)"/>
      <use xlink:href="#DejaVuSans-3" transform="translate(2896.890625 0)"/>
      <use xlink:href="#DejaVuSans-49" transform="translate(2928.671875 0)"/>
      <use xlink:href="#DejaVuSans-44" transform="translate(2963.875 0)"/>
      <use xlink:href="#DejaVuSans-56" transform="translate(3025.15625 0)"/>
      <use xlink:href="#DejaVuSans-57" transform="translate(3077.25 0)"/>
      <use xlink:href="#DejaVuSans-48" transform="translate(3116.453125 0)"/>
      <use xlink:href="#DejaVuSans-55" transform="translate(3177.984375 0)"/>
      <use xlink:href="#DejaVuSans-c" transform="translate(3219.09375 0)"/>
     </g>
    </g>
   </g>
   <g id="matplotlib.axis_2">
    <g id="ytick_1">
     <g id="line2d_17">
      <defs>
       <path id="m8351869b89" d="M 0 0 
L -3.5 0 
" style="stroke: #000000; stroke-width: 0.8"/>
      </defs>
      <g>
       <use xlink:href="#m8351869b89" x="102.04" y="61.109424" style="stroke: #000000; stroke-width: 0.8"/>
      </g>
     </g>
     <g id="text_4">
      <!-- vtu (binary+zlib) -->
      <g transform="translate(10.7275 64.908642) scale(0.1 -0.1)">
       <defs>
        <path id="DejaVuSans-59" d="M 191 3500 
L 800 3500 
L 1894 563 
L 2988 3500 
L 3597 3500 
L 2284 0 
L 1503 0 
L 191 3500 
z
" transform="scale(0.015625)"/>
        <path id="DejaVuSans-45" d="M 3116 1747 
Q 3116 2381 2855 2742 
Q 2594 3103 2138 3103 
Q 1681 3103 1420 2742 
Q 1159 2381 1159 1747 
Q 1159 1113 1420 752 
Q 1681 391 2138 391 
Q 2594 391 2855 752 
Q 3116 1113 3116 1747 
z
M 1159 2969 
Q 1341 3281 1617 3432 
Q 1894 3584 2278 3584 
Q 2916 3584 3314 3078 
Q 3713 2572 3713 1747 
Q 3713 922 3314 415 
Q 2916 -91 2278 -91 
Q 1894 -91 1617 61 
Q 1341 213 1159 525 
L 1159 0 
L 581 0 
L 581 4863 
L 1159 4863 
L 1159 2969 
z
" transform="scale(0.015625)"/>
        <path id="DejaVuSans-51" d="M 3513 2113 
L 3513 0 
L 2938 0 
L 2938 2094 
Q 2938 2591 2744 2837 
Q 2550 3084 2163 3084 
Q 1697 3084 1428 2787 
Q 1159 2491 1159 1978 
L 1159 0 
L 581 0 
L 581 3500 
L 1159 3500 
L 1159 2956 
Q 1366 3272 1645 3428 
Q 1925 3584 2291 3584 
Q 2894 3584 3203 3211 
Q 3513 2838 3513 2113 
z
" transform="scale(0.015625)"/>
        <path id="DejaVuSans-5d" d="M 353 3500 
L 3084 3500 
L 3084 2975 
L 922 459 
L 3084 459 
L 3084 0 
L 275 0 
L 275 525 
L 2438 3041 
L 353 3041 
L 353 3500 
z
" transform="scale(0.015625)"/>
       </defs>
       <use xlink:href="#DejaVuSans-59"/>
       <use xlink:href="#DejaVuSans-57" transform="translate(59.1875 0)"/>
       <use xlink:href="#DejaVuSans-58" transform="translate(98.390625 0)"/>
       <use xlink:href="#DejaVuSans-3" transform="translate(161.765625 0)"/>
       <use xlink:href="#DejaVuSans-b" transform="translate(193.546875 0)"/>
       <use xlink:href="#DejaVuSans-45" transform="translate(232.5625 0)"/>
       <use xlink:href="#DejaVuSans-4c" transform="translate(296.046875 0)"/>
       <use xlink:href="#DejaVuSans-51" transform="translate(323.828125 0)"/>
       <use xlink:href="#DejaVuSans-44" transform="translate(387.203125 0)"/>
       <use xlink:href="#DejaVuSans-55" transform="translate(448.484375 0)"/>
       <use xlink:href="#DejaVuSans-5c" transform="translate(489.59375 0)"/>
       <use xlink:href="#DejaVuSans-e" transform="translate(548.78125 0)"/>
       <use xlink:href="#DejaVuSans-5d" transform="translate(632.578125 0)"/>
       <use xlink:href="#DejaVuSans-4f" transform="translate(685.0625 0)"/>
       <use xlink:href="#DejaVuSans-4c" transform="translate(712.84375 0)"/>
       <use xlink:href="#DejaVuSans-45" transform="translate(740.625 0)"/>
       <use xlink:href="#DejaVuSans-c" transform="translate(804.109375 0)"/>
      </g>
     </g>
    </g>
    <g id="ytick_2">
     <g id="line2d_18">
      <g>
       <use xlink:href="#m8351869b89" x="102.04" y="109.785501" style="stroke: #000000; stroke-width: 0.8"/>
      </g>
     </g>
     <g id="text_5">
      <!-- vtu (ascii) -->
      <g transform="translate(45.49 113.58472) scale(0.1 -0.1)">
       <use xlink:href="#DejaVuSans-59"/>
       <use xlink:href="#DejaVuSans-57" transform="translate(59.1875 0)"/>
       <use xlink:href="#DejaVuSans-58" transform="translate(98.390625 0)"/>
       <use xlink:href="#DejaVuSans-3" transform="translate(161.765625 0)"/>
       <use xlink:href="#DejaVuSans-b" transform="translate(193.546875 0)"/>
       <use xlink:href="#DejaVuSans-44" transform="translate(232.5625 0)"/>
       <use xlink:href="#DejaVuSans-56" transform="translate(293.84375 0)"/>
       <use xlink:href="#DejaVuSans-46" transform="translate(345.9375 0)"/>
       <use xlink:href="#DejaVuSans-4c" transform="translate(400.921875 0)"/>
       <use xlink:href="#DejaVuSans-4c" transform="translate(428.703125 0)"/>
       <use xlink:href="#DejaVuSans-c" transform="translate(456.484375 0)"/>
      </g>
     </g>
    </g>
    <g id="ytick_3">
     <g id="line2d_19">
      <g>
       <use xlink:href="#m8351869b89" x="102.04" y="158.461579" style="stroke: #000000; stroke-width: 0.8"/>
      </g>
     </g>
     <g id="text_6">
      <!-- vtk (binary) -->
      <g transform="translate(36.807187 162.260797) scale(0.1 -0.1)">
       <defs>
        <path id="DejaVuSans-4e" d="M 581 4863 
L 1159 4863 
L 1159 1991 
L 2875 3500 
L 3609 3500 
L 1753 1863 
L 3688 0 
L 2938 0 
L 1159 1709 
L 1159 0 
L 581 0 
L 581 4863 
z
" transform="scale(0.015625)"/>
       </defs>
       <use xlink:href="#DejaVuSans-59"/>
       <use xlink:href="#DejaVuSans-57" transform="translate(59.1875 0)"/>
       <use xlink:href="#DejaVuSans-4e" transform="translate(98.390625 0)"/>
       <use xlink:href="#DejaVuSans-3" transform="translate(156.296875 0)"/>
       <use xlink:href="#DejaVuSans-b" transform="translate(188.078125 0)"/>
       <use xlink:href="#DejaVuSans-45" transform="translate(227.09375 0)"/>
       <use xlink:href="#DejaVuSans-4c" transform="translate(290.578125 0)"/>
       <use xlink:href="#DejaVuSans-51" transform="translate(318.359375 0)"/>
       <use xlink:href="#DejaVuSans-44" transform="translate(381.734375 0)"/>
       <use xlink:href="#DejaVuSans-55" transform="translate(443.015625 0)"/>
       <use xlink:href="#DejaVuSans-5c" transform="translate(484.125 0)"/>
       <use xlink:href="#DejaVuSans-c" transform="translate(543.3125 0)"/>
      </g>
     </g>
    </g>
    <g id="ytick_4">
     <g id="line2d_20">
      <g>
       <use xlink:href="#m8351869b89" x="102.04" y="207.137656" style="stroke: #000000; stroke-width: 0.8"/>
      </g>
     </g>
     <g id="text_7">
      <!-- gmsh (binary) -->
      <g transform="translate(24.800937 210.936875) scale(0.1 -0.1)">
       <use xlink:href="#DejaVuSans-4a"/>
       <use xlink:href="#DejaVuSans-50" transform="translate(63.484375 0)"/>
       <use xlink:href="#DejaVuSans-56" transform="translate(160.890625 0)"/>
       <use xlink:href="#DejaVuSans-4b" transform="translate(212.984375 0)"/>
       <use xlink:href="#DejaVuSans-3" transform="translate(276.359375 0)"/>
       <use xlink:href="#DejaVuSans-b" transform="translate(308.140625 0)"/>
       <use xlink:href="#DejaVuSans-45" transform="translate(347.15625 0)"/>
       <use xlink:href="#DejaVuSans-4c" transform="translate(410.640625 0)"/>
       <use xlink:href="#DejaVuSans-51" transform="translate(438.421875 0)"/>
       <use xlink:href="#DejaVuSans-44" transform="translate(501.796875 0)"/>
       <use xlink:href="#DejaVuSans-55" transform="translate(563.078125 0)"/>
       <use xlink:href="#DejaVuSans-5c" transform="translate(604.1875 0)"/>
       <use xlink:href="#DejaVuSans-c" transform="translate(663.375 0)"/>
      </g>
     </g>
    </g>
    <g id="ytick_5">
     <g id="line2d_21">
      <g>
       <use xlink:href="#m8351869b89" x="102.04" y="255.813734" style="stroke: #000000; stroke-width: 0.8"/>
      </g>
     </g>
     <g id="text_8">
      <!-- xdmf (HDF5) -->
      <g transform="translate(31.19625 259.612953) scale(0.1 -0.1)">
       <defs>
        <path id="DejaVuSans-5b" d="M 3513 3500 
L 2247 1797 
L 3578 0 
L 2900 0 
L 1881 1375 
L 863 0 
L 184 0 
L 1544 1831 
L 300 3500 
L 978 3500 
L 1906 2253 
L 2834 3500 
L 3513 3500 
z
" transform="scale(0.015625)"/>
        <path id="DejaVuSans-2b" d="M 628 4666 
L 1259 4666 
L 1259 2753 
L 3553 2753 
L 3553 4666 
L 4184 4666 
L 4184 0 
L 3553 0 
L 3553 2222 
L 1259 2222 
L 1259 0 
L 628 0 
L 628 4666 
z
" transform="scale(0.015625)"/>
        <path id="DejaVuSans-27" d="M 1259 4147 
L 1259 519 
L 2022 519 
Q 2988 519 3436 956 
Q 3884 1394 3884 2338 
Q 3884 3275 3436 3711 
Q 2988 4147 2022 4147 
L 1259 4147 
z
M 628 4666 
L 1925 4666 
Q 3281 4666 3915 4102 
Q 4550 3538 4550 2338 
Q 4550 1131 3912 565 
Q 3275 0 1925 0 
L 628 0 
L 628 4666 
z
" transform="scale(0.015625)"/>
        <path id="DejaVuSans-29" d="M 628 4666 
L 3309 4666 
L 3309 4134 
L 1259 4134 
L 1259 2759 
L 3109 2759 
L 3109 2228 
L 1259 2228 
L 1259 0 
L 628 0 
L 628 4666 
z
" transform="scale(0.015625)"/>
        <path id="DejaVuSans-18" d="M 691 4666 
L 3169 4666 
L 3169 4134 
L 1269 4134 
L 1269 2991 
Q 1406 3038 1543 3061 
Q 1681 3084 1819 3084 
Q 2600 3084 3056 2656 
Q 3513 2228 3513 1497 
Q 3513 744 3044 326 
Q 2575 -91 1722 -91 
Q 1428 -91 1123 -41 
Q 819 9 494 109 
L 494 744 
Q 775 591 1075 516 
Q 1375 441 1709 441 
Q 2250 441 2565 725 
Q 2881 1009 2881 1497 
Q 2881 1984 2565 2268 
Q 2250 2553 1709 2553 
Q 1456 2553 1204 2497 
Q 953 2441 691 2322 
L 691 4666 
z
" transform="scale(0.015625)"/>
       </defs>
       <use xlink:href="#DejaVuSans-5b"/>
       <use xlink:href="#DejaVuSans-47" transform="translate(59.1875 0)"/>
       <use xlink:href="#DejaVuSans-50" transform="translate(122.671875 0)"/>
       <use xlink:href="#DejaVuSans-49" transform="translate(220.078125 0)"/>
       <use xlink:href="#DejaVuSans-3" transform="translate(255.28125 0)"/>
       <use xlink:href="#DejaVuSans-b" transform="translate(287.0625 0)"/>
       <use xlink:href="#DejaVuSans-2b" transform="translate(326.078125 0)"/>
       <use xlink:href="#DejaVuSans-27" transform="translate(401.28125 0)"/>
       <use xlink:href="#DejaVuSans-29" transform="translate(478.28125 0)"/>
       <use xlink:href="#DejaVuSans-18" transform="translate(535.796875 0)"/>
       <use xlink:href="#DejaVuSans-c" transform="translate(599.421875 0)"/>
      </g>
     </g>
    </g>
    <g id="ytick_6">
     <g id="line2d_22">
      <g>
       <use xlink:href="#m8351869b89" x="102.04" y="304.489811" style="stroke: #000000; stroke-width: 0.8"/>
      </g>
     </g>
     <g id="text_9">
      <!-- med (HDF5) -->
      <g transform="translate(34.482187 308.28903) scale(0.1 -0.1)">
       <use xlink:href="#DejaVuSans-50"/>
       <use xlink:href="#DejaVuSans-48" transform="translate(97.40625 0)"/>
       <use xlink:href="#DejaVuSans-47" transform="translate(158.9375 0)"/>
       <use xlink:href="#DejaVuSans-3" transform="translate(222.421875 0)"/>
       <use xlink:href="#DejaVuSans-b" transform="translate(254.203125 0)"/>
       <use xlink:href="#DejaVuSans-2b" transform="translate(293.21875 0)"/>
       <use xlink:href="#DejaVuSans-27" transform="translate(368.421875 0)"/>
       <use xlink:href="#DejaVuSans-29" transform="translate(445.421875 0)"/>
       <use xlink:href="#DejaVuSans-18" transform="translate(502.9375 0)"/>
       <use xlink:href="#DejaVuSans-c" transform="translate(566.5625 0)"/>
      </g>
     </g>
    </g>
    <g id="ytick_7">
     <g id="line2d_23">
      <g>
       <use xlink:href="#m8351869b89" x="102.04" y="353.165889" style="stroke: #000000; stroke-width: 0.8"/>
      </g>
     </g>
     <g id="text_10">
      <!-- mdpa -->
      <g transform="translate(66.474375 356.965108) scale(0.1 -0.1)">
       <use xlink:href="#DejaVuSans-50"/>
       <use xlink:href="#DejaVuSans-47" transform="translate(97.40625 0)"/>
       <use xlink:href="#DejaVuSans-53" transform="translate(160.890625 0)"/>
       <use xlink:href="#DejaVuSans-44" transform="translate(224.375 0)"/>
      </g>
     </g>
    </g>
   </g>
   <g id="line2d_24">
    <path d="M 211.102344 388.115312 
L 211.102344 26.16 
" clip-path="url(#pdaaef7506a)" style="fill: none; stroke-dasharray: 3.7,1.6; stroke-dashoffset: 0; stroke: #333333"/>
   </g>
   <g id="patch_18">
    <path d="M 102.04 388.115312 
L 102.04 26.16 
" style="fill: none; stroke: #000000; stroke-width: 0.8; stroke-linejoin: miter; stroke-linecap: square"/>
   </g>
   <g id="patch_19">
    <path d="M 637.2 388.115312 
L 637.2 26.16 
" style="fill: none; stroke: #000000; stroke-width: 0.8; stroke-linejoin: miter; stroke-linecap: square"/>
   </g>
   <g id="patch_20">
    <path d="M 102.04 388.115312 
L 637.2 388.115312 
" style="fill: none; stroke: #000000; stroke-width: 0.8; stroke-linejoin: miter; stroke-linecap: square"/>
   </g>
   <g id="patch_21">
    <path d="M 102.04 26.16 
L 637.2 26.16 
" style="fill: none; stroke: #000000; stroke-width: 0.8; stroke-linejoin: miter; stroke-linecap: square"/>
   </g>
   <g id="text_11">
    <!-- 15.9x -->
    <g transform="translate(599.636194 72.436003) scale(0.08 -0.08)">
     <defs>
      <path id="DejaVuSans-11" d="M 684 794 
L 1344 794 
L 1344 0 
L 684 0 
L 684 794 
z
" transform="scale(0.015625)"/>
      <path id="DejaVuSans-1c" d="M 703 97 
L 703 672 
Q 941 559 1184 500 
Q 1428 441 1663 441 
Q 2288 441 2617 861 
Q 2947 1281 2994 2138 
Q 2813 1869 2534 1725 
Q 2256 1581 1919 1581 
Q 1219 1581 811 2004 
Q 403 2428 403 3163 
Q 403 3881 828 4315 
Q 1253 4750 1959 4750 
Q 2769 4750 3195 4129 
Q 3622 3509 3622 2328 
Q 3622 1225 3098 567 
Q 2575 -91 1691 -91 
Q 1453 -91 1209 -44 
Q 966 3 703 97 
z
M 1959 2075 
Q 2384 2075 2632 2365 
Q 2881 2656 2881 3163 
Q 2881 3666 2632 3958 
Q 2384 4250 1959 4250 
Q 1534 4250 1286 3958 
Q 1038 3666 1038 3163 
Q 1038 2656 1286 2365 
Q 1534 2075 1959 2075 
z
" transform="scale(0.015625)"/>
     </defs>
     <use xlink:href="#DejaVuSans-14"/>
     <use xlink:href="#DejaVuSans-18" transform="translate(63.625 0)"/>
     <use xlink:href="#DejaVuSans-11" transform="translate(127.25 0)"/>
     <use xlink:href="#DejaVuSans-1c" transform="translate(159.03125 0)"/>
     <use xlink:href="#DejaVuSans-5b" transform="translate(222.65625 0)"/>
    </g>
   </g>
   <g id="text_12">
    <!-- 7.8x -->
    <g transform="translate(501.091834 121.112081) scale(0.08 -0.08)">
     <defs>
      <path id="DejaVuSans-1a" d="M 525 4666 
L 3525 4666 
L 3525 4397 
L 1831 0 
L 1172 0 
L 2766 4134 
L 525 4134 
L 525 4666 
z
" transform="scale(0.015625)"/>
      <path id="DejaVuSans-1b" d="M 2034 2216 
Q 1584 2216 1326 1975 
Q 1069 1734 1069 1313 
Q 1069 891 1326 650 
Q 1584 409 2034 409 
Q 2484 409 2743 651 
Q 3003 894 3003 1313 
Q 3003 1734 2745 1975 
Q 2488 2216 2034 2216 
z
M 1403 2484 
Q 997 2584 770 2862 
Q 544 3141 544 3541 
Q 544 4100 942 4425 
Q 1341 4750 2034 4750 
Q 2731 4750 3128 4425 
Q 3525 4100 3525 3541 
Q 3525 3141 3298 2862 
Q 3072 2584 2669 2484 
Q 3125 2378 3379 2068 
Q 3634 1759 3634 1313 
Q 3634 634 3220 271 
Q 2806 -91 2034 -91 
Q 1263 -91 848 271 
Q 434 634 434 1313 
Q 434 1759 690 2068 
Q 947 2378 1403 2484 
z
M 1172 3481 
Q 1172 3119 1398 2916 
Q 1625 2713 2034 2713 
Q 2441 2713 2670 2916 
Q 2900 3119 2900 3481 
Q 2900 3844 2670 4047 
Q 2441 4250 2034 4250 
Q 1625 4250 1398 4047 
Q 1172 3844 1172 3481 
z
" transform="scale(0.015625)"/>
     </defs>
     <use xlink:href="#DejaVuSans-1a"/>
     <use xlink:href="#DejaVuSans-11" transform="translate(63.625 0)"/>
     <use xlink:href="#DejaVuSans-1b" transform="translate(95.40625 0)"/>
     <use xlink:href="#DejaVuSans-5b" transform="translate(159.03125 0)"/>
    </g>
   </g>
   <g id="text_13">
    <!-- 1.0x -->
    <g transform="translate(218.46511 169.788158) scale(0.08 -0.08)">
     <use xlink:href="#DejaVuSans-14"/>
     <use xlink:href="#DejaVuSans-11" transform="translate(63.625 0)"/>
     <use xlink:href="#DejaVuSans-13" transform="translate(95.40625 0)"/>
     <use xlink:href="#DejaVuSans-5b" transform="translate(159.03125 0)"/>
    </g>
   </g>
   <g id="text_14">
    <!-- 0.6x -->
    <g transform="translate(147.811963 218.464236) scale(0.08 -0.08)">
     <defs>
      <path id="DejaVuSans-19" d="M 2113 2584 
Q 1688 2584 1439 2293 
Q 1191 2003 1191 1497 
Q 1191 994 1439 701 
Q 1688 409 2113 409 
Q 2538 409 2786 701 
Q 3034 994 3034 1497 
Q 3034 2003 2786 2293 
Q 2538 2584 2113 2584 
z
M 3366 4563 
L 3366 3988 
Q 3128 4100 2886 4159 
Q 2644 4219 2406 4219 
Q 1781 4219 1451 3797 
Q 1122 3375 1075 2522 
Q 1259 2794 1537 2939 
Q 1816 3084 2150 3084 
Q 2853 3084 3261 2657 
Q 3669 2231 3669 1497 
Q 3669 778 3244 343 
Q 2819 -91 2113 -91 
Q 1303 -91 875 529 
Q 447 1150 447 2328 
Q 447 3434 972 4092 
Q 1497 4750 2381 4750 
Q 2619 4750 2861 4703 
Q 3103 4656 3366 4563 
z
" transform="scale(0.015625)"/>
     </defs>
     <use xlink:href="#DejaVuSans-13"/>
     <use xlink:href="#DejaVuSans-11" transform="translate(63.625 0)"/>
     <use xlink:href="#DejaVuSans-19" transform="translate(95.40625 0)"/>
     <use xlink:href="#DejaVuSans-5b" transform="translate(159.03125 0)"/>
    </g>
   </g>
   <g id="text_15">
    <!-- 0.9x -->
    <g transform="translate(204.43156 267.140314) scale(0.08 -0.08)">
     <use xlink:href="#DejaVuSans-13"/>
     <use xlink:href="#DejaVuSans-11" transform="translate(63.625 0)"/>
     <use xlink:href="#DejaVuSans-1c" transform="translate(95.40625 0)"/>
     <use xlink:href="#DejaVuSans-5b" transform="translate(159.03125 0)"/>
    </g>
   </g>
   <g id="text_16">
    <!-- 0.8x -->
    <g transform="translate(177.701274 315.816391) scale(0.08 -0.08)">
     <use xlink:href="#DejaVuSans-13"/>
     <use xlink:href="#DejaVuSans-11" transform="translate(63.625 0)"/>
     <use xlink:href="#DejaVuSans-1b" transform="translate(95.40625 0)"/>
     <use xlink:href="#DejaVuSans-5b" transform="translate(159.03125 0)"/>
    </g>
   </g>
   <g id="text_17">
    <!-- 1.3x -->
    <g transform="translate(251.348865 364.492469) scale(0.08 -0.08)">
     <defs>
      <path id="DejaVuSans-16" d="M 2597 2516 
Q 3050 2419 3304 2112 
Q 3559 1806 3559 1356 
Q 3559 666 3084 287 
Q 2609 -91 1734 -91 
Q 1441 -91 1130 -33 
Q 819 25 488 141 
L 488 750 
Q 750 597 1062 519 
Q 1375 441 1716 441 
Q 2309 441 2620 675 
Q 2931 909 2931 1356 
Q 2931 1769 2642 2001 
Q 2353 2234 1838 2234 
L 1294 2234 
L 1294 2753 
L 1863 2753 
Q 2328 2753 2575 2939 
Q 2822 3125 2822 3475 
Q 2822 3834 2567 4026 
Q 2313 4219 1838 4219 
Q 1578 4219 1281 4162 
Q 984 4106 628 3988 
L 628 4550 
Q 988 4650 1302 4700 
Q 1616 4750 1894 4750 
Q 2613 4750 3031 4423 
Q 3450 4097 3450 3541 
Q 3450 3153 3228 2886 
Q 3006 2619 2597 2516 
z
" transform="scale(0.015625)"/>
     </defs>
     <use xlink:href="#DejaVuSans-14"/>
     <use xlink:href="#DejaVuSans-11" transform="translate(63.625 0)"/>
     <use xlink:href="#DejaVuSans-16" transform="translate(95.40625 0)"/>
     <use xlink:href="#DejaVuSans-5b" transform="translate(159.03125 0)"/>
    </g>
   </g>
   <g id="text_18">
    <!-- 2.4x -->
    <g transform="translate(337.537237 53.939094) scale(0.08 -0.08)">
     <defs>
      <path id="DejaVuSans-15" d="M 1228 531 
L 3431 531 
L 3431 0 
L 469 0 
L 469 531 
Q 828 903 1448 1529 
Q 2069 2156 2228 2338 
Q 2531 2678 2651 2914 
Q 2772 3150 2772 3378 
Q 2772 3750 2511 3984 
Q 2250 4219 1831 4219 
Q 1534 4219 1204 4116 
Q 875 4013 500 3803 
L 500 4441 
Q 881 4594 1212 4672 
Q 1544 4750 1819 4750 
Q 2544 4750 2975 4387 
Q 3406 4025 3406 3419 
Q 3406 3131 3298 2873 
Q 3191 2616 2906 2266 
Q 2828 2175 2409 1742 
Q 1991 1309 1228 531 
z
" transform="scale(0.015625)"/>
      <path id="DejaVuSans-17" d="M 2419 4116 
L 825 1625 
L 2419 1625 
L 2419 4116 
z
M 2253 4666 
L 3047 4666 
L 3047 1625 
L 3713 1625 
L 3713 1100 
L 3047 1100 
L 3047 0 
L 2419 0 
L 2419 1100 
L 313 1100 
L 313 1709 
L 2253 4666 
z
" transform="scale(0.015625)"/>
     </defs>
     <use xlink:href="#DejaVuSans-15"/>
     <use xlink:href="#DejaVuSans-11" transform="translate(63.625 0)"/>
     <use xlink:href="#DejaVuSans-17" transform="translate(95.40625 0)"/>
     <use xlink:href="#DejaVuSans-5b" transform="translate(159.03125 0)"/>
    </g>
   </g>
   <g id="text_19">
    <!-- 4.6x -->
    <g transform="translate(428.010839 102.615171) scale(0.08 -0.08)">
     <use xlink:href="#DejaVuSans-17"/>
     <use xlink:href="#DejaVuSans-11" transform="translate(63.625 0)"/>
     <use xlink:href="#DejaVuSans-19" transform="translate(95.40625 0)"/>
     <use xlink:href="#DejaVuSans-5b" transform="translate(159.03125 0)"/>
    </g>
   </g>
   <g id="text_20">
    <!-- 1.0x -->
    <g transform="translate(220.508682 151.291249) scale(0.08 -0.08)">
     <use xlink:href="#DejaVuSans-14"/>
     <use xlink:href="#DejaVuSans-11" transform="translate(63.625 0)"/>
     <use xlink:href="#DejaVuSans-13" transform="translate(95.40625 0)"/>
     <use xlink:href="#DejaVuSans-5b" transform="translate(159.03125 0)"/>
    </g>
   </g>
   <g id="text_21">
    <!-- 1.8x -->
    <g transform="translate(295.480965 199.967327) scale(0.08 -0.08)">
     <use xlink:href="#DejaVuSans-14"/>
     <use xlink:href="#DejaVuSans-11" transform="translate(63.625 0)"/>
     <use xlink:href="#DejaVuSans-1b" transform="translate(95.40625 0)"/>
     <use xlink:href="#DejaVuSans-5b" transform="translate(159.03125 0)"/>
    </g>
   </g>
   <g id="text_22">
    <!-- 1.0x -->
    <g transform="translate(215.363173 248.643404) scale(0.08 -0.08)">
     <use xlink:href="#DejaVuSans-14"/>
     <use xlink:href="#DejaVuSans-11" transform="translate(63.625 0)"/>
     <use xlink:href="#DejaVuSans-13" transform="translate(95.40625 0)"/>
     <use xlink:href="#DejaVuSans-5b" transform="translate(159.03125 0)"/>
    </g>
   </g>
   <g id="text_23">
    <!-- 0.9x -->
    <g transform="translate(200.260994 297.319482) scale(0.08 -0.08)">
     <use xlink:href="#DejaVuSans-13"/>
     <use xlink:href="#DejaVuSans-11" transform="translate(63.625 0)"/>
     <use xlink:href="#DejaVuSans-1c" transform="translate(95.40625 0)"/>
     <use xlink:href="#DejaVuSans-5b" transform="translate(159.03125 0)"/>
    </g>
   </g>
   <g id="text_24">
    <!-- 0.8x -->
    <g transform="translate(191.963526 345.995559) scale(0.08 -0.08)">
     <use xlink:href="#DejaVuSans-13"/>
     <use xlink:href="#DejaVuSans-11" transform="translate(63.625 0)"/>
     <use xlink:href="#DejaVuSans-1b" transform="translate(95.40625 0)"/>
     <use xlink:href="#DejaVuSans-5b" transform="translate(159.03125 0)"/>
    </g>
   </g>
   <g id="text_25">
    <!-- meshio++ speedup - synthetic cube -->
    <g transform="translate(259.984062 20.16) scale(0.12 -0.12)">
     <defs>
      <path id="DejaVuSans-10" d="M 313 2009 
L 1997 2009 
L 1997 1497 
L 313 1497 
L 313 2009 
z
" transform="scale(0.015625)"/>
     </defs>
     <use xlink:href="#DejaVuSans-50"/>
     <use xlink:href="#DejaVuSans-48" transform="translate(97.40625 0)"/>
     <use xlink:href="#DejaVuSans-56" transform="translate(158.9375 0)"/>
     <use xlink:href="#DejaVuSans-4b" transform="translate(211.03125 0)"/>
     <use xlink:href="#DejaVuSans-4c" transform="translate(274.40625 0)"/>
     <use xlink:href="#DejaVuSans-52" transform="translate(302.1875 0)"/>
     <use xlink:href="#DejaVuSans-e" transform="translate(363.375 0)"/>
     <use xlink:href="#DejaVuSans-e" transform="translate(447.171875 0)"/>
     <use xlink:href="#DejaVuSans-3" transform="translate(530.96875 0)"/>
     <use xlink:href="#DejaVuSans-56" transform="translate(562.75 0)"/>
     <use xlink:href="#DejaVuSans-53" transform="translate(614.84375 0)"/>
     <use xlink:href="#DejaVuSans-48" transform="translate(678.328125 0)"/>
     <use xlink:href="#DejaVuSans-48" transform="translate(739.859375 0)"/>
     <use xlink:href="#DejaVuSans-47" transform="translate(801.390625 0)"/>
     <use xlink:href="#DejaVuSans-58" transform="translate(864.875 0)"/>
     <use xlink:href="#DejaVuSans-53" transform="translate(928.25 0)"/>
     <use xlink:href="#DejaVuSans-3" transform="translate(991.734375 0)"/>
     <use xlink:href="#DejaVuSans-10" transform="translate(1023.515625 0)"/>
     <use xlink:href="#DejaVuSans-3" transform="translate(1059.59375 0)"/>
     <use xlink:href="#DejaVuSans-56" transform="translate(1091.375 0)"/>
     <use xlink:href="#DejaVuSans-5c" transform="translate(1143.46875 0)"/>
     <use xlink:href="#DejaVuSans-51" transform="translate(1202.65625 0)"/>
     <use xlink:href="#DejaVuSans-57" transform="translate(1266.03125 0)"/>
     <use xlink:href="#DejaVuSans-4b" transform="translate(1305.234375 0)"/>
     <use xlink:href="#DejaVuSans-48" transform="translate(1368.609375 0)"/>
     <use xlink:href="#DejaVuSans-57" transform="translate(1430.140625 0)"/>
     <use xlink:href="#DejaVuSans-4c" transform="translate(1469.34375 0)"/>
     <use xlink:href="#DejaVuSans-46" transform="translate(1497.125 0)"/>
     <use xlink:href="#DejaVuSans-3" transform="translate(1552.109375 0)"/>
     <use xlink:href="#DejaVuSans-46" transform="translate(1583.890625 0)"/>
     <use xlink:href="#DejaVuSans-58" transform="translate(1638.875 0)"/>
     <use xlink:href="#DejaVuSans-45" transform="translate(1702.25 0)"/>
     <use xlink:href="#DejaVuSans-48" transform="translate(1765.734375 0)"/>
    </g>
   </g>
   <g id="legend_1">
    <g id="patch_22">
     <path d="M 579.473437 383.615312 
L 630.9 383.615312 
Q 632.7 383.615312 632.7 381.815313 
L 632.7 355.713906 
Q 632.7 353.913906 630.9 353.913906 
L 579.473437 353.913906 
Q 577.673437 353.913906 577.673437 355.713906 
L 577.673437 381.815313 
Q 577.673437 383.615312 579.473437 383.615312 
z
" style="fill: #ffffff; opacity: 0.8; stroke: #cccccc; stroke-linejoin: miter"/>
    </g>
    <g id="patch_23">
     <path d="M 581.273438 364.3525 
L 599.273438 364.3525 
L 599.273438 358.0525 
L 581.273438 358.0525 
z
" style="fill: #1f4e79"/>
    </g>
    <g id="text_26">
     <!-- write -->
     <g transform="translate(606.473438 364.3525) scale(0.09 -0.09)">
      <defs>
       <path id="DejaVuSans-5a" d="M 269 3500 
L 844 3500 
L 1563 769 
L 2278 3500 
L 2956 3500 
L 3675 769 
L 4391 3500 
L 4966 3500 
L 4050 0 
L 3372 0 
L 2619 2869 
L 1863 0 
L 1184 0 
L 269 3500 
z
" transform="scale(0.015625)"/>
      </defs>
      <use xlink:href="#DejaVuSans-5a"/>
      <use xlink:href="#DejaVuSans-55" transform="translate(81.78125 0)"/>
      <use xlink:href="#DejaVuSans-4c" transform="translate(122.890625 0)"/>
      <use xlink:href="#DejaVuSans-57" transform="translate(150.671875 0)"/>
      <use xlink:href="#DejaVuSans-48" transform="translate(189.875 0)"/>
     </g>
    </g>
    <g id="patch_24">
     <path d="M 581.273438 377.853203 
L 599.273438 377.853203 
L 599.273438 371.553203 
L 581.273438 371.553203 
z
" style="fill: #2ec4b6"/>
    </g>
    <g id="text_27">
     <!-- read -->
     <g transform="translate(606.473438 377.853203) scale(0.09 -0.09)">
      <use xlink:href="#DejaVuSans-55"/>
      <use xlink:href="#DejaVuSans-48" transform="translate(38.90625 0)"/>
      <use xlink:href="#DejaVuSans-44" transform="translate(100.4375 0)"/>
      <use xlink:href="#DejaVuSans-47" transform="translate(161.71875 0)"/>
     </g>
    </g>
   </g>
  </g>
 </g>
 <defs>
  <clipPath id="pdaaef7506a">
   <rect x="102.04" y="26.16" width="535.16" height="361.955312"/>
  </clipPath>
 </defs>
</svg>
